<?xml version="1.0" standalone="no"?>
<!DOCTYPE svg PUBLIC "-//W3C//DTD SVG 20010904//EN"
 "http://www.w3.org/TR/2001/REC-SVG-20010904/DTD/svg10.dtd">
<svg version="1.0" xmlns="http://www.w3.org/2000/svg"
 width="700.000000pt" height="700.000000pt" viewBox="0 0 700.000000 700.000000"
 preserveAspectRatio="xMidYMid meet">
<metadata>
Created by potrace 1.11, written by Peter Selinger 2001-2013
</metadata>
<g transform="translate(0.000000,700.000000) scale(0.100000,-0.100000)"
fill="#000000" stroke="none">
<path d="M3328 6995 c-2 -2 -46 -6 -98 -9 -52 -3 -104 -8 -115 -10 -11 -2 -47
-7 -80 -10 -33 -4 -67 -9 -75 -11 -8 -2 -31 -6 -50 -9 -84 -13 -219 -43 -325
-73 -710 -197 -1335 -608 -1792 -1178 -249 -310 -427 -627 -561 -1000 -42
-116 -94 -291 -107 -355 -2 -8 -8 -33 -14 -55 -9 -36 -43 -228 -55 -315 -16
-115 -21 -222 -21 -445 0 -269 5 -338 41 -570 32 -207 114 -501 197 -706 193
-472 455 -863 812 -1207 437 -423 936 -705 1528 -867 53 -14 107 -28 120 -30
12 -3 33 -7 47 -10 90 -19 218 -41 295 -50 187 -21 250 -25 430 -25 191 0 251
3 455 26 88 10 277 46 395 75 532 131 1028 389 1450 753 91 79 276 264 345
346 30 36 58 67 61 70 3 3 36 44 72 92 303 400 501 815 624 1313 17 68 62 332
68 395 4 41 9 84 12 95 2 11 5 124 7 250 2 203 -9 405 -28 531 -23 144 -28
174 -37 214 -6 25 -13 56 -15 70 -9 52 -76 285 -109 380 -67 190 -169 412
-272 590 -54 93 -142 232 -152 240 -3 3 -22 28 -41 57 -157 228 -437 517 -686
710 -76 58 -330 233 -339 233 -2 0 -39 20 -81 45 -84 50 -263 138 -364 179
-36 15 -74 31 -85 36 -133 61 -537 170 -720 195 -16 2 -43 6 -60 9 -16 2 -59
8 -95 11 -36 4 -78 9 -95 12 -32 5 -483 12 -487 8z"/>
</g>
</svg>
